# xmcd
#
# Track frame offsets: 
#        150
#        12068
#        31714
#        58359
#        72895
#        90643
#        111414
#        130956
#        152755
#        167008
#        181518
#        202810
#        225419
#        240292
#        261948
#        278794
#
# Disc length: 3950 seconds
#
# Revision: 0
# Processed by: cddbd v1.5.2PL0 Copyright (c) Steve Scherf et al.
# Submitted via: ExactAudioCopy v0.99pb3
#
DISCID=c70f6c10
DTITLE=Various Artist - The Best of Sacramento
DYEAR=1998
DGENRE=Hip-Hop
TTITLE0=Situation Dirty
TTITLE1=Birds in the Kitchen
TTITLE2=That Sickness
TTITLE3=Highway Music
TTITLE4=Dirty Macking
TTITLE5=Do You Wanna Get High
TTITLE6=Young and Ruthless
TTITLE7=Ghetto Blues
TTITLE8=Fill'em Up
TTITLE9=Moving
TTITLE10=Swallow It
TTITLE11=Don't Get Yo Jaw Broke
TTITLE12=Pimp S@#*
TTITLE13=Break'em Off Something
TTITLE14=Do You Want Funk
TTITLE15=Black Dickies with Grips
EXTD=
EXTT0=
EXTT1=
EXTT2=
EXTT3=
EXTT4=
EXTT5=
EXTT6=
EXTT7=
EXTT8=
EXTT9=
EXTT10=
EXTT11=
EXTT12=
EXTT13=
EXTT14=
EXTT15=
PLAYORDER=
